<mxfile host="app.diagrams.net" agent="Mozilla/5.0 (Windows NT 10.0; Win64; x64) AppleWebKit/537.36 (KHTML, like Gecko) Chrome/139.0.0.0 Safari/537.36" version="28.1.1">
  <diagram name="Page-1" id="UQY8Fe07Vpor37Oz_ijp">
    <mxGraphModel dx="1747" dy="1002" grid="1" gridSize="10" guides="1" tooltips="1" connect="1" arrows="1" fold="1" page="1" pageScale="1" pageWidth="827" pageHeight="1169" math="0" shadow="0">
      <root>
        <mxCell id="0" />
        <mxCell id="1" parent="0" />
        <mxCell id="XnjxZ_FRsr8RZ8tSxypd-1" value="&lt;font style=&quot;font-size: 18px;&quot;&gt;Manage Attendence Details&lt;/font&gt;" style="rounded=0;whiteSpace=wrap;html=1;fillColor=#fa6800;fontColor=#000000;strokeColor=#C73500;" vertex="1" parent="1">
          <mxGeometry x="560" y="340" width="250" height="60" as="geometry" />
        </mxCell>
        <mxCell id="XnjxZ_FRsr8RZ8tSxypd-2" value="&lt;font style=&quot;font-size: 18px;&quot;&gt;Manage Student Details&lt;/font&gt;" style="rounded=0;whiteSpace=wrap;html=1;fillColor=#fa6800;fontColor=#000000;strokeColor=#C73500;" vertex="1" parent="1">
          <mxGeometry x="560" y="555" width="250" height="60" as="geometry" />
        </mxCell>
        <mxCell id="XnjxZ_FRsr8RZ8tSxypd-3" value="&lt;font style=&quot;font-size: 24px;&quot;&gt;Student Information System&lt;/font&gt;" style="rounded=0;whiteSpace=wrap;html=1;fillColor=#fa6800;fontColor=#000000;strokeColor=#C73500;" vertex="1" parent="1">
          <mxGeometry x="60" y="70" width="640" height="90" as="geometry" />
        </mxCell>
        <mxCell id="XnjxZ_FRsr8RZ8tSxypd-4" value="&lt;font style=&quot;font-size: 18px;&quot;&gt;Manage Report&lt;/font&gt;" style="rounded=0;whiteSpace=wrap;html=1;fillColor=#fa6800;fontColor=#000000;strokeColor=#C73500;" vertex="1" parent="1">
          <mxGeometry x="560" y="860" width="250" height="60" as="geometry" />
        </mxCell>
        <mxCell id="XnjxZ_FRsr8RZ8tSxypd-5" value="&lt;font style=&quot;font-size: 18px;&quot;&gt;Manage Teacher Profiles&lt;/font&gt;" style="rounded=0;whiteSpace=wrap;html=1;fillColor=#fa6800;fontColor=#000000;strokeColor=#C73500;" vertex="1" parent="1">
          <mxGeometry x="560" y="760" width="250" height="60" as="geometry" />
        </mxCell>
        <mxCell id="XnjxZ_FRsr8RZ8tSxypd-6" value="&lt;font style=&quot;font-size: 18px;&quot;&gt;Manage Fees Details&lt;/font&gt;" style="rounded=0;whiteSpace=wrap;html=1;fillColor=#fa6800;fontColor=#000000;strokeColor=#C73500;" vertex="1" parent="1">
          <mxGeometry x="560" y="660" width="250" height="60" as="geometry" />
        </mxCell>
        <mxCell id="XnjxZ_FRsr8RZ8tSxypd-7" value="&lt;font style=&quot;font-size: 18px;&quot;&gt;Manage Class Details&lt;/font&gt;" style="rounded=0;whiteSpace=wrap;html=1;fillColor=#fa6800;fontColor=#000000;strokeColor=#C73500;" vertex="1" parent="1">
          <mxGeometry x="560" y="450" width="250" height="60" as="geometry" />
        </mxCell>
        <mxCell id="XnjxZ_FRsr8RZ8tSxypd-9" value="&lt;font style=&quot;font-size: 18px;&quot;&gt;Manage User Permission&lt;/font&gt;" style="rounded=0;whiteSpace=wrap;html=1;fillColor=#fa6800;fontColor=#000000;strokeColor=#C73500;" vertex="1" parent="1">
          <mxGeometry x="390" y="1030" width="160" height="60" as="geometry" />
        </mxCell>
        <mxCell id="XnjxZ_FRsr8RZ8tSxypd-10" value="&lt;font style=&quot;font-size: 18px;&quot;&gt;Manage Roles of User&lt;/font&gt;" style="rounded=0;whiteSpace=wrap;html=1;fillColor=#fa6800;fontColor=#000000;strokeColor=#C73500;" vertex="1" parent="1">
          <mxGeometry x="200" y="1030" width="180" height="60" as="geometry" />
        </mxCell>
        <mxCell id="XnjxZ_FRsr8RZ8tSxypd-15" value="&lt;font style=&quot;font-size: 18px;&quot;&gt;Manage System Admins&lt;/font&gt;" style="rounded=0;whiteSpace=wrap;html=1;fillColor=#fa6800;fontColor=#000000;strokeColor=#C73500;" vertex="1" parent="1">
          <mxGeometry x="10" y="1030" width="180" height="60" as="geometry" />
        </mxCell>
        <mxCell id="XnjxZ_FRsr8RZ8tSxypd-16" value="&lt;font style=&quot;font-size: 18px;&quot;&gt;Manage Timetable Details&lt;/font&gt;" style="rounded=0;whiteSpace=wrap;html=1;fillColor=#fa6800;fontColor=#000000;strokeColor=#C73500;" vertex="1" parent="1">
          <mxGeometry x="560" y="230" width="250" height="60" as="geometry" />
        </mxCell>
        <mxCell id="XnjxZ_FRsr8RZ8tSxypd-17" value="&lt;font style=&quot;font-size: 18px;&quot;&gt;Check Credentials&lt;/font&gt;" style="ellipse;whiteSpace=wrap;html=1;aspect=fixed;fillColor=#fa6800;fontColor=#000000;strokeColor=#C73500;" vertex="1" parent="1">
          <mxGeometry x="207.75" y="526" width="117.5" height="117.5" as="geometry" />
        </mxCell>
        <mxCell id="XnjxZ_FRsr8RZ8tSxypd-18" value="&lt;font style=&quot;font-size: 18px;&quot;&gt;Forgot Password&lt;/font&gt;" style="ellipse;whiteSpace=wrap;html=1;aspect=fixed;fillColor=#fa6800;fontColor=#000000;strokeColor=#C73500;" vertex="1" parent="1">
          <mxGeometry x="25" y="537" width="113" height="113" as="geometry" />
        </mxCell>
        <mxCell id="XnjxZ_FRsr8RZ8tSxypd-19" value="&lt;font style=&quot;font-size: 18px;&quot;&gt;Check Rolesof Access&lt;/font&gt;" style="ellipse;whiteSpace=wrap;html=1;aspect=fixed;fillColor=#fa6800;fontColor=#000000;strokeColor=#C73500;" vertex="1" parent="1">
          <mxGeometry x="364" y="250" width="100" height="100" as="geometry" />
        </mxCell>
        <mxCell id="XnjxZ_FRsr8RZ8tSxypd-20" value="&lt;font style=&quot;font-size: 18px;&quot;&gt;Login to System&lt;/font&gt;" style="ellipse;whiteSpace=wrap;html=1;aspect=fixed;fillColor=#fa6800;fontColor=#000000;strokeColor=#C73500;" vertex="1" parent="1">
          <mxGeometry x="214" y="252.5" width="105" height="105" as="geometry" />
        </mxCell>
        <mxCell id="XnjxZ_FRsr8RZ8tSxypd-21" value="&lt;font style=&quot;font-size: 18px;&quot;&gt;Send Email to Password&lt;/font&gt;" style="ellipse;whiteSpace=wrap;html=1;aspect=fixed;fillColor=#fa6800;fontColor=#000000;strokeColor=#C73500;" vertex="1" parent="1">
          <mxGeometry x="25" y="760" width="110" height="110" as="geometry" />
        </mxCell>
        <mxCell id="XnjxZ_FRsr8RZ8tSxypd-23" value="&lt;font style=&quot;font-size: 18px;&quot;&gt;Manage Modules&lt;/font&gt;" style="ellipse;whiteSpace=wrap;html=1;aspect=fixed;fillColor=#fa6800;fontColor=#000000;strokeColor=#C73500;" vertex="1" parent="1">
          <mxGeometry x="369" y="537" width="95" height="95" as="geometry" />
        </mxCell>
        <mxCell id="XnjxZ_FRsr8RZ8tSxypd-24" value="&lt;font style=&quot;font-size: 18px;&quot;&gt;Admin&lt;/font&gt;" style="rounded=0;whiteSpace=wrap;html=1;fillColor=#fa6800;fontColor=#000000;strokeColor=#C73500;" vertex="1" parent="1">
          <mxGeometry x="10" y="280" width="160" height="50" as="geometry" />
        </mxCell>
        <mxCell id="XnjxZ_FRsr8RZ8tSxypd-25" value="" style="endArrow=classic;html=1;rounded=0;entryX=0.5;entryY=0;entryDx=0;entryDy=0;" edge="1" parent="1" target="XnjxZ_FRsr8RZ8tSxypd-10">
          <mxGeometry width="50" height="50" relative="1" as="geometry">
            <mxPoint x="404" y="630" as="sourcePoint" />
            <mxPoint x="377" y="1015" as="targetPoint" />
          </mxGeometry>
        </mxCell>
        <mxCell id="XnjxZ_FRsr8RZ8tSxypd-26" value="" style="endArrow=classic;html=1;rounded=0;entryX=0.5;entryY=0;entryDx=0;entryDy=0;" edge="1" parent="1" source="XnjxZ_FRsr8RZ8tSxypd-23" target="XnjxZ_FRsr8RZ8tSxypd-15">
          <mxGeometry width="50" height="50" relative="1" as="geometry">
            <mxPoint x="290" y="680" as="sourcePoint" />
            <mxPoint x="280" y="690" as="targetPoint" />
          </mxGeometry>
        </mxCell>
        <mxCell id="XnjxZ_FRsr8RZ8tSxypd-27" value="" style="endArrow=classic;html=1;rounded=0;exitX=0.909;exitY=0.766;exitDx=0;exitDy=0;entryX=0;entryY=0.5;entryDx=0;entryDy=0;exitPerimeter=0;" edge="1" parent="1" source="XnjxZ_FRsr8RZ8tSxypd-23" target="XnjxZ_FRsr8RZ8tSxypd-6">
          <mxGeometry width="50" height="50" relative="1" as="geometry">
            <mxPoint x="290" y="840" as="sourcePoint" />
            <mxPoint x="340" y="790" as="targetPoint" />
          </mxGeometry>
        </mxCell>
        <mxCell id="XnjxZ_FRsr8RZ8tSxypd-28" value="" style="endArrow=classic;html=1;rounded=0;entryX=0;entryY=0.5;entryDx=0;entryDy=0;exitX=0.777;exitY=0.922;exitDx=0;exitDy=0;exitPerimeter=0;" edge="1" parent="1" source="XnjxZ_FRsr8RZ8tSxypd-23" target="XnjxZ_FRsr8RZ8tSxypd-5">
          <mxGeometry width="50" height="50" relative="1" as="geometry">
            <mxPoint x="440" y="610" as="sourcePoint" />
            <mxPoint x="340" y="790" as="targetPoint" />
          </mxGeometry>
        </mxCell>
        <mxCell id="XnjxZ_FRsr8RZ8tSxypd-29" value="" style="endArrow=classic;html=1;rounded=0;entryX=0;entryY=0.5;entryDx=0;entryDy=0;" edge="1" parent="1" target="XnjxZ_FRsr8RZ8tSxypd-4">
          <mxGeometry width="50" height="50" relative="1" as="geometry">
            <mxPoint x="430" y="630" as="sourcePoint" />
            <mxPoint x="340" y="790" as="targetPoint" />
          </mxGeometry>
        </mxCell>
        <mxCell id="XnjxZ_FRsr8RZ8tSxypd-30" value="" style="endArrow=classic;html=1;rounded=0;entryX=0.5;entryY=0;entryDx=0;entryDy=0;exitX=0.5;exitY=1;exitDx=0;exitDy=0;" edge="1" parent="1" source="XnjxZ_FRsr8RZ8tSxypd-23" target="XnjxZ_FRsr8RZ8tSxypd-9">
          <mxGeometry width="50" height="50" relative="1" as="geometry">
            <mxPoint x="420" y="640" as="sourcePoint" />
            <mxPoint x="340" y="790" as="targetPoint" />
          </mxGeometry>
        </mxCell>
        <mxCell id="XnjxZ_FRsr8RZ8tSxypd-31" value="" style="endArrow=classic;html=1;rounded=0;entryX=0;entryY=0.5;entryDx=0;entryDy=0;exitX=0.992;exitY=0.6;exitDx=0;exitDy=0;exitPerimeter=0;" edge="1" parent="1" source="XnjxZ_FRsr8RZ8tSxypd-23" target="XnjxZ_FRsr8RZ8tSxypd-2">
          <mxGeometry width="50" height="50" relative="1" as="geometry">
            <mxPoint x="290" y="710" as="sourcePoint" />
            <mxPoint x="340" y="660" as="targetPoint" />
          </mxGeometry>
        </mxCell>
        <mxCell id="XnjxZ_FRsr8RZ8tSxypd-32" value="" style="endArrow=classic;html=1;rounded=0;entryX=0;entryY=0.5;entryDx=0;entryDy=0;exitX=0.967;exitY=0.402;exitDx=0;exitDy=0;exitPerimeter=0;" edge="1" parent="1" source="XnjxZ_FRsr8RZ8tSxypd-23" target="XnjxZ_FRsr8RZ8tSxypd-7">
          <mxGeometry width="50" height="50" relative="1" as="geometry">
            <mxPoint x="470" y="560" as="sourcePoint" />
            <mxPoint x="340" y="660" as="targetPoint" />
          </mxGeometry>
        </mxCell>
        <mxCell id="XnjxZ_FRsr8RZ8tSxypd-33" value="" style="endArrow=classic;html=1;rounded=0;entryX=0;entryY=0.5;entryDx=0;entryDy=0;exitX=1;exitY=0;exitDx=0;exitDy=0;" edge="1" parent="1" source="XnjxZ_FRsr8RZ8tSxypd-23" target="XnjxZ_FRsr8RZ8tSxypd-1">
          <mxGeometry width="50" height="50" relative="1" as="geometry">
            <mxPoint x="460" y="500" as="sourcePoint" />
            <mxPoint x="340" y="470" as="targetPoint" />
          </mxGeometry>
        </mxCell>
        <mxCell id="XnjxZ_FRsr8RZ8tSxypd-34" value="" style="endArrow=classic;html=1;rounded=0;entryX=0;entryY=0.5;entryDx=0;entryDy=0;" edge="1" parent="1" source="XnjxZ_FRsr8RZ8tSxypd-23" target="XnjxZ_FRsr8RZ8tSxypd-16">
          <mxGeometry width="50" height="50" relative="1" as="geometry">
            <mxPoint x="290" y="520" as="sourcePoint" />
            <mxPoint x="340" y="470" as="targetPoint" />
          </mxGeometry>
        </mxCell>
        <mxCell id="XnjxZ_FRsr8RZ8tSxypd-35" value="" style="endArrow=classic;html=1;rounded=0;entryX=0.5;entryY=0;entryDx=0;entryDy=0;" edge="1" parent="1" source="XnjxZ_FRsr8RZ8tSxypd-19" target="XnjxZ_FRsr8RZ8tSxypd-23">
          <mxGeometry width="50" height="50" relative="1" as="geometry">
            <mxPoint x="290" y="520" as="sourcePoint" />
            <mxPoint x="340" y="470" as="targetPoint" />
          </mxGeometry>
        </mxCell>
        <mxCell id="XnjxZ_FRsr8RZ8tSxypd-36" value="" style="endArrow=classic;html=1;rounded=0;entryX=0.5;entryY=0;entryDx=0;entryDy=0;exitX=0.5;exitY=1;exitDx=0;exitDy=0;" edge="1" parent="1" source="XnjxZ_FRsr8RZ8tSxypd-20" target="XnjxZ_FRsr8RZ8tSxypd-17">
          <mxGeometry width="50" height="50" relative="1" as="geometry">
            <mxPoint x="290" y="580" as="sourcePoint" />
            <mxPoint x="340" y="530" as="targetPoint" />
          </mxGeometry>
        </mxCell>
        <mxCell id="XnjxZ_FRsr8RZ8tSxypd-37" value="" style="endArrow=classic;html=1;rounded=0;entryX=0.232;entryY=0.908;entryDx=0;entryDy=0;entryPerimeter=0;exitX=1;exitY=0;exitDx=0;exitDy=0;" edge="1" parent="1" source="XnjxZ_FRsr8RZ8tSxypd-17" target="XnjxZ_FRsr8RZ8tSxypd-19">
          <mxGeometry width="50" height="50" relative="1" as="geometry">
            <mxPoint x="290" y="580" as="sourcePoint" />
            <mxPoint x="340" y="530" as="targetPoint" />
          </mxGeometry>
        </mxCell>
        <mxCell id="XnjxZ_FRsr8RZ8tSxypd-38" value="" style="endArrow=classic;html=1;rounded=0;exitX=0.455;exitY=0.996;exitDx=0;exitDy=0;exitPerimeter=0;entryX=0.5;entryY=0;entryDx=0;entryDy=0;" edge="1" parent="1" source="XnjxZ_FRsr8RZ8tSxypd-24" target="XnjxZ_FRsr8RZ8tSxypd-18">
          <mxGeometry width="50" height="50" relative="1" as="geometry">
            <mxPoint x="290" y="580" as="sourcePoint" />
            <mxPoint x="83" y="530" as="targetPoint" />
          </mxGeometry>
        </mxCell>
        <mxCell id="XnjxZ_FRsr8RZ8tSxypd-39" value="" style="endArrow=classic;html=1;rounded=0;exitX=1;exitY=0.5;exitDx=0;exitDy=0;entryX=0;entryY=0.5;entryDx=0;entryDy=0;" edge="1" parent="1" source="XnjxZ_FRsr8RZ8tSxypd-24" target="XnjxZ_FRsr8RZ8tSxypd-20">
          <mxGeometry width="50" height="50" relative="1" as="geometry">
            <mxPoint x="290" y="450" as="sourcePoint" />
            <mxPoint x="340" y="400" as="targetPoint" />
          </mxGeometry>
        </mxCell>
        <mxCell id="XnjxZ_FRsr8RZ8tSxypd-40" value="" style="endArrow=classic;html=1;rounded=0;entryX=0.5;entryY=0;entryDx=0;entryDy=0;" edge="1" parent="1" target="XnjxZ_FRsr8RZ8tSxypd-21">
          <mxGeometry width="50" height="50" relative="1" as="geometry">
            <mxPoint x="80" y="650" as="sourcePoint" />
            <mxPoint x="340" y="780" as="targetPoint" />
          </mxGeometry>
        </mxCell>
      </root>
    </mxGraphModel>
  </diagram>
</mxfile>
